<?xml version="1.0" encoding="UTF-8"?>
<svg width="80px" height="80px" viewBox="0 0 80 80" version="1.1" xmlns="http://www.w3.org/2000/svg" xmlns:xlink="http://www.w3.org/1999/xlink">
    <!-- Generator: Sketch 55.1 (78136) - https://sketchapp.com -->
    <title>logo</title>
    <desc>Created with Sketch.</desc>
    <defs>
        <linearGradient x1="15.7753468%" y1="73.230548%" x2="68.9737092%" y2="29.5704562%" id="linearGradient-1">
            <stop stop-color="#05D0FF" offset="0%"></stop>
            <stop stop-color="#3C48E7" offset="100%"></stop>
        </linearGradient>
        <linearGradient x1="39.3122207%" y1="13.875%" x2="97.4630239%" y2="80.5059003%" id="linearGradient-2">
            <stop stop-color="#05D0FF" offset="0%"></stop>
            <stop stop-color="#3C48E7" offset="100%"></stop>
        </linearGradient>
    </defs>
    <g id="logo" stroke="none" stroke-width="1" fill="none" fill-rule="evenodd">
        <g id="1" transform="translate(17.000000, 11.000000)">
            <g id="编组-2">
                <path d="M16.8612906,2.13162821e-14 L22.9642643,5.47092066 L29.5150359,2.13162821e-14 C33.9639673,4.4831971 38.3687812,8.80586997 42.7294777,12.9680186 C47.0901741,17.1301673 47.0901741,19.8835838 42.7294777,21.2282682 L39.9838893,21.2282682 C39.9838893,22.6192108 39.9838893,24.8950998 39.9838893,28.0559353 C39.9838893,31.2167709 38.083646,33.1981258 34.2831594,34 C24.1413323,34 17.1593697,34 13.3372717,34 C9.51517367,34 7.18135016,32.643232 6.33580116,29.9296959 C6.29217045,28.9260366 6.29217045,26.0255607 6.33580116,21.2282682 C0.570880882,21.2282682 -1.25993087,19.5073829 0.843365903,16.0656122 L16.8612906,2.13162821e-14 Z M17.2446144,6.25119004 L6.78806678,16.4496214 C9.26206568,16.5112394 10.4990651,17.7506766 10.4990651,20.167933 C10.4990651,22.5851894 10.4990651,25.1077501 10.4990651,27.735615 C10.6391367,29.027798 11.9857846,29.6738894 14.5390088,29.6738894 C17.092233,29.6738894 23.1231068,29.6738894 32.6316302,29.6738894 C34.5871853,29.6891013 35.5649629,28.6601446 35.5649629,26.5870194 C35.5649629,24.5138942 35.5649629,22.3741988 35.5649629,20.167933 C35.2433965,18.0406772 36.3376355,16.80124 38.8476797,16.4496214 C38.2277978,15.8139116 34.9868078,12.4144345 29.1247096,6.25119004 L26.4162035,8.81076766 C32.7181978,14.8202611 32.7181978,19.9863204 26.4162035,24.3089457 C18.0683498,27.735615 8.97968951,16.7235894 19.5860848,9.2282706 C18.0951297,7.39298439 17.3146396,6.4006242 17.2446144,6.25119004 Z M21.1169985,15.2057228 C20.4357394,15.7556632 20,16.5975955 20,17.5413003 C20,19.1981545 21.3431458,20.5413003 23,20.5413003 C24.6568542,20.5413003 26,19.1981545 26,17.5413003 C26,16.9421809 25.8243771,16.3840806 25.5218041,15.915672 L25.5300721,15.915672 L25.4982427,15.8797627 C25.3447344,15.649412 25.1602157,15.4414969 24.9506505,15.2619816 L23.0204099,13.084328 L21.1169985,15.2057228 Z" id="形状结合" fill="url(#linearGradient-1)"></path>
                <path d="M28.2844502,10.7703472 C27.7420959,10.1274347 27.1228949,9.47424154 26.4268474,8.81076766 C27.0694435,9.504283 27.6886006,10.1557281 28.2844502,10.7703472 C32.6545343,15.9506907 32.0353333,20.4635568 26.4268474,24.3089457 C18.0756301,27.735615 8.98330769,16.7235894 19.5939766,9.2282706 C18.1024208,7.39298439 17.3216162,6.4006242 17.2515628,6.25119004 L6.79080189,16.4496214 C9.26579764,16.5112394 10.5032955,17.7506766 10.5032955,20.167933 C10.5032955,22.5851894 10.5032955,25.1077501 10.5032955,27.735615 C10.6434235,29.027798 11.990614,29.6738894 14.544867,29.6738894 C17.09912,29.6738894 23.1324238,29.6738894 32.6447785,29.6738894 C34.6011215,29.6891013 35.579293,28.6601446 35.579293,26.5870194 C35.579293,24.5138942 35.579293,22.3741988 35.579293,20.167933 C35.4621078,19.3930305 35.5328686,18.7359372 35.7915754,18.1966529 C38.6196723,21.1728892 40,23.56378 40,28.0559353 C40,31.2167692 38.098991,33.1981241 34.2969731,34 C24.1510595,34 17.1662837,34 13.3426457,34 C9.51900761,34 7.18424374,32.643232 6.33835404,29.9296959 C6.29470575,28.9260366 6.29470575,26.0255607 6.33835404,21.2282682 C0.571110906,21.2282682 -1.26043854,19.5073829 0.84370572,16.0656122 L16.8680846,2.13162821e-14 L22.9735172,5.47092066 C24.589425,6.9567898 25.740535,8.07007213 26.4268474,8.81076766 L28.2844502,10.7703472 Z M21.1169985,15.2057228 C20.4357394,15.7556632 20,16.5975955 20,17.5413003 C20,19.1981545 21.3431458,20.5413003 23,20.5413003 C24.6568542,20.5413003 26,19.1981545 26,17.5413003 C26,16.9421809 25.8243771,16.3840806 25.5218041,15.915672 L25.5300721,15.915672 L25.4982427,15.8797627 C25.3447344,15.649412 25.1602157,15.4414969 24.9506505,15.2619816 L23.0204099,13.084328 L21.1169985,15.2057228 Z" id="形状结合" fill="url(#linearGradient-2)"></path>
            </g>
            <text id="宿宝" stroke="#303030" font-family="PingFangSC-Regular, PingFang SC" font-size="16" font-weight="normal" fill="#303030">
                <tspan x="7" y="53">宿宝</tspan>
            </text>
        </g>
    </g>
</svg>