<?xml version="1.0" encoding="utf-8"?>
<!-- Generator: Adobe Illustrator 23.0.4, SVG Export Plug-In . SVG Version: 6.00 Build 0)  -->
<svg version="1.1" id="图层_1" xmlns="http://www.w3.org/2000/svg" xmlns:xlink="http://www.w3.org/1999/xlink" x="0px" y="0px"
	 viewBox="0 0 114 114" style="enable-background:new 0 0 114 114;" xml:space="preserve">
<style type="text/css">
	.st0{fill-rule:evenodd;clip-rule:evenodd;}
	.st1{fill-rule:evenodd;clip-rule:evenodd;fill:#FFFFFF;stroke:#0060E4;stroke-width:2;}
	.st2{fill:#0060E4;}
	.st3{enable-background:new    ;}
</style>
<title>linedesign-20</title>
<desc>Created with Sketch.</desc>
<g id="linedesign-20" transform="translate(620.000000, 661.000000)">
	<g id="椭圆形">
		<g>
			<circle id="path-1" class="st0" cx="-563" cy="-604" r="55"/>
		</g>
		<circle class="st1" cx="-563" cy="-604" r="56"/>
	</g>
	<g id="矩形" transform="translate(30.000000, 12.044243)">
		<g id="蒙版">
			<path class="st2" d="M-574-644.6c-2.7-8.3-10-14.4-18.7-14.4c-8.6,0-16,6-18.7,14.3c-3.7,0.3-6.6,3.5-6.6,7.5v5.5
				c0,4.1,3.2,7.5,7.1,7.5h3.8c1.1,0,2-0.9,2-2v-16.6c0-1.1-0.9-2-2-2h-0.1c2.5-6.1,8-10.3,14.5-10.3c6.5,0,12,4.2,14.5,10.3h-0.8
				c-1.1,0-2,0.9-2,2v16.6c0,0.5,0.2,1,0.5,1.3c-3,3.4-7.3,5.4-12.6,5.4c-0.7,0-1.3,0.6-1.3,1.3s0.6,1.3,1.3,1.3
				c6.6,0,12-2.7,15.5-7.3h2.4c3.9,0,7.1-3.4,7.1-7.5v-5.5C-568.1-640.9-570.7-644-574-644.6z M-609.1-636.4v8.3h-1.8
				c-1.7,0-3.1-1.6-3.1-3.6v-5.5c0-0.3,0-0.6,0.1-0.9c0-0.1,0-0.1,0.1-0.2c0.1-0.2,0.2-0.5,0.3-0.7c0,0,0,0,0-0.1
				c0.3-0.5,0.7-1,1.2-1.3c0.2-0.1,0.4-0.2,0.6-0.3c0,0,0,0,0.1,0c0.2-0.1,0.5-0.1,0.7-0.1h1.8V-636.4L-609.1-636.4z M-572.1-631.7
				c0,2-1.4,3.6-3.1,3.6h-1.8v-12.6h1.8c0.9,0,1.6,0.4,2.2,1c0.6,0.7,0.9,1.6,0.9,2.5L-572.1-631.7L-572.1-631.7z"/>
		</g>
	</g>
	<g class="st3">
		<path class="st2" d="M-591-589.2v1.6h-1v9.4c0.4-0.1,0.7-0.2,1.1-0.3v1.7l-1.1,0.3v3.4h-1.6v-3c-1.4,0.4-2.8,0.7-4.3,1l-0.4-1.6
			l1-0.2v-10.7h-1v-1.6H-591z M-593.6-585.3v-2.3h-2v2.3H-593.6z M-593.6-581.6v-2.2h-2v2.2H-593.6z M-593.6-577.7v-2.3h-2v2.8
			C-594.9-577.4-594.3-577.5-593.6-577.7z M-586.3-586c0.6-1.2,1.2-2.4,1.7-3.8l1.6,0.6c-0.5,1.2-1,2.3-1.5,3.2h2.4v1.6h-3.5v0.3
			c0,0.8,0,1.6-0.1,2.4h4v1.6h-3.5c0.5,1.8,1.7,3.7,3.8,5.6l-1.2,1.3c-1.8-1.9-3-3.8-3.6-5.6c-0.7,2.6-2.1,4.4-4,5.7l-1-1.4
			c1.9-1.2,3.1-3,3.7-5.6h-3.3v-1.6h3.5c0.1-0.6,0.1-1.3,0.1-2v-0.7h-3.4v-1.6H-586.3z M-587.2-586.9l-1.3,0.9
			c-0.4-0.8-1-1.8-1.6-2.8l1.3-0.8C-588.1-588.6-587.5-587.7-587.2-586.9z"/>
		<path class="st2" d="M-574.5-577.4c-1.2,1.5-2.7,2.7-4.5,3.8l-1.1-1.4c1.7-1,3.2-2.2,4.4-3.5L-574.5-577.4z M-574.7-573.2
			l-0.4-1.7c0.6,0.1,1.3,0.1,1.8,0.1c0.4,0,0.6-0.2,0.6-0.6v-4c-1.7,0.1-3.6,0.2-5.5,0.3l-0.5-1.5c0.5-0.1,1-0.2,1.5-0.3
			c1.3-0.6,2.8-1.4,4.4-2.6c-1.4,0.1-3,0.2-4.6,0.3l-0.4-1.5c0.4,0,0.8-0.1,1.2-0.3c0.7-0.4,1.6-1.1,2.6-2.2
			c-1.4,0.1-2.9,0.1-4.5,0.1l-0.5-1.5c5.1,0,9.5-0.4,13.1-1l0.8,1.4c-1.9,0.4-4.2,0.7-6.8,0.9c-0.9,1.1-1.9,2-2.9,2.7
			c1.3-0.1,2.5-0.1,3.8-0.2c0.8-0.6,1.5-1.3,2.4-2.1l1.6,0.8c-2.9,2.5-5.3,4.3-7.5,5.5c2.5-0.2,4.7-0.4,6.5-0.6
			c-0.4-0.5-0.8-1-1.2-1.6l1.3-0.8c1.5,1.7,2.6,3.3,3.4,4.6l-1.4,1c-0.3-0.6-0.7-1.2-1.1-1.8c-1.2,0.1-2.5,0.3-3.9,0.4v4.5
			c0,1.2-0.6,1.7-1.7,1.7H-574.7z M-564-574.7l-1.2,1.2c-1-1.2-2.5-2.6-4.4-4l1.1-1.1C-566.7-577.3-565.2-576-564-574.7z"/>
		<path class="st2" d="M-554.8-586.5c-0.2,0.3-0.4,0.6-0.7,1h6.4v1.4c-0.6,0.9-1.6,1.8-2.8,2.5c1.8,0.6,3.9,1,6.1,1.2l-0.4,1.5
			c-2.8-0.2-5.4-0.8-7.6-1.8c-2.1,0.9-4.8,1.6-8,2.1l-0.6-1.5c2.7-0.4,5-0.9,6.9-1.5c-0.8-0.5-1.4-1-2.1-1.5
			c-0.7,0.6-1.4,1.1-2.1,1.6l-1.1-1.3c1.7-0.9,3.1-2.2,4.3-3.9L-554.8-586.5z M-546.5-584.9h-1.7v-2.1h-11.5v2.1h-1.7v-3.6h6.4
			c-0.2-0.4-0.4-0.7-0.6-1l1.9-0.3c0.2,0.4,0.4,0.8,0.5,1.3h6.7V-584.9z M-548.5-573.1h-1.7v-0.7h-7.3v0.7h-1.7v-5.9h10.6V-573.1z
			 M-550.2-575.3v-2.1h-7.3v2.1H-550.2z M-551.1-584.1h-5.2c0.8,0.6,1.7,1.2,2.7,1.7C-552.6-582.9-551.8-583.4-551.1-584.1z"/>
		<path class="st2" d="M-542.9-573.1l-1.3-1.2c0.7-1.6,1.1-3.6,1.1-6v-8.8h5.6v14.1c0,1.2-0.6,1.8-1.7,1.8h-1.4l-0.4-1.5
			c0.5,0.1,1,0.1,1.4,0.1c0.4,0,0.6-0.3,0.6-1v-3.6h-2.6C-541.7-576.7-542.1-574.7-542.9-573.1z M-539-587.6h-2.5v2.7h2.5V-587.6z
			 M-541.5-580.7h2.5v-2.6h-2.5V-580.7z M-534.6-573.1h-1.6v-16h7.6c0,2.3-0.1,3.9-0.3,4.7c-0.2,0.8-0.9,1.1-2.1,1.1h-1.5l-0.4-1.4
			c0.3,0,0.7,0,1.2,0c0.4,0,0.7,0,0.8-0.1c0.2-0.1,0.3-0.2,0.4-0.5c0.1-0.3,0.2-1.1,0.2-2.3h-4.3v5.1h6.1v1.4
			c-0.3,1.8-0.9,3.3-1.6,4.5c0.7,0.7,1.6,1.3,2.6,1.9l-0.8,1.4c-1-0.6-1.9-1.3-2.7-2c-0.7,0.8-1.6,1.5-2.6,2.1l-0.9-1.3V-573.1z
			 M-534.6-574.5c0.9-0.5,1.7-1.2,2.4-1.9c-1-1.3-1.8-2.8-2.2-4.5h-0.2V-574.5z M-531.3-577.8c0.5-0.9,1-2,1.2-3.2h-2.9
			C-532.6-579.8-532.1-578.7-531.3-577.8z"/>
	</g>
</g>
</svg>
